Fly_normalized_Motion_pl03
version=1
nRows=22
nColumns=43
inDegrees=yes
endheader
time		pelvis_tilt		pelvis_list		pelvis_rotation		pelvis_tx		pelvis_ty		pelvis_tz		hip_flexion_r		hip_adduction_r		hip_rotation_r		knee_angle_r		ankle_angle_r		subtalar_angle_r		mtp_angle_r		hip_flexion_l		hip_adduction_l		hip_rotation_l		knee_angle_l		ankle_angle_l		subtalar_angle_l		mtp_angle_l		lumbar_extension		lumbar_bending		lumbar_rotation		neck_flexion		neck_lateral_bending		neck_rotation		arm_flex_r		arm_add_r		arm_rot_r		elbow_flex_r		pro_sup_r		wrist_flex_r		wrist_dev_r		hand_finger_flex_r		arm_flex_l		arm_add_l		arm_rot_l		elbow_flex_l		pro_sup_l		wrist_flex_l		wrist_dev_l		hand_finger_flex_l		
0.910833		-0.883233		23.248951		88.655356		0.016887		1.560490		0.917984		12.388984		-5.988908		-8.832947		-23.745006		-30.633261		-1.358757		17.635779		2.712217		-0.578732		-15.003126		-19.206230		-30.343563		-9.215202		21.699279		-67.872174		-0.625239		-3.556884		-14.919483		-4.039123		3.553776		-17.139228		-36.505407		7.967853		34.094733		103.749089		-9.911363		6.455591		36.279562		-22.482806		-34.032671		-4.481330		48.910834		127.872146		-12.374346		5.965165		78.118474		
0.915202		-1.030536		23.417069		88.808696		0.017121		1.546603		0.907078		11.486361		-6.169025		-9.318180		-22.476076		-30.931596		-0.940585		17.576576		2.038276		-0.463017		-15.156324		-18.363580		-30.519872		-8.998732		22.126071		-66.993044		-0.730477		-3.790423		-16.674947		-4.005255		3.609323		-20.385536		-36.191495		7.274545		33.827187		103.053204		-9.752162		6.632317		36.642228		-25.788825		-33.732452		-5.510355		49.062855		127.054075		-13.144711		5.465435		78.763999		
0.919571		-1.181017		23.368863		88.924683		0.017440		1.532129		0.896212		10.911201		-6.317319		-9.685784		-21.382808		-31.303634		-0.712118		17.480195		1.683940		-0.354639		-15.249481		-17.676305		-30.635063		-8.922763		22.216691		-65.889939		-0.896013		-3.960737		-18.486442		-3.935804		3.550617		-23.649951		-35.832364		6.577332		33.574281		102.293139		-9.525023		6.618929		36.896926		-29.076093		-33.427642		-6.524928		49.372983		126.262490		-13.566442		5.150874		79.111867		
0.923939		-1.314810		23.476102		89.065034		0.017707		1.517798		0.885315		10.115622		-6.464325		-10.237473		-20.256878		-31.561772		-0.391303		17.404726		1.137501		-0.259997		-15.306400		-16.963576		-30.738986		-8.847524		22.326111		-64.993725		-1.025656		-4.167167		-20.008245		-3.862650		3.524478		-26.862683		-35.441594		5.746643		33.459552		101.506280		-9.196543		6.987484		37.296110		-32.400585		-33.053435		-7.548588		49.751312		125.185751		-14.220202		4.584100		79.746959		
0.928308		-1.412354		23.531131		89.197230		0.018096		1.503250		0.874404		9.410409		-6.559040		-10.796336		-19.237051		-31.845058		-0.132924		17.318857		0.703211		-0.229802		-15.357706		-16.369857		-30.846938		-8.834929		22.330531		-64.046679		-1.156784		-4.296833		-21.581395		-3.754138		3.435565		-30.080801		-35.036102		5.014201		33.426467		100.921800		-8.796832		7.378891		37.716812		-35.683352		-32.724147		-8.410681		50.222148		124.182672		-14.852463		4.064511		80.377668		
0.932677		-1.472550		23.473370		89.304600		0.018627		1.488388		0.863500		8.889173		-6.587924		-11.247498		-18.340191		-32.139583		0.052249		17.219339		0.447985		-0.267659		-15.453440		-15.902227		-31.005750		-8.839137		22.277016		-62.975024		-1.299497		-4.361024		-23.285482		-3.640827		3.339071		-33.275961		-34.630408		4.569354		33.442537		100.566929		-8.400908		7.622804		38.042866		-38.924353		-32.465244		-9.022954		50.801697		123.490063		-15.287659		3.693041		80.818015		
0.937045		-1.517086		23.560459		89.498779		0.018950		1.473659		0.852650		8.149254		-6.636480		-11.987268		-17.416806		-32.343922		0.400041		17.086017		0.069965		-0.325823		-15.474812		-15.485190		-31.152060		-8.790729		22.188043		-62.119502		-1.342638		-4.479529		-24.675512		-3.499525		3.324106		-36.451932		-34.127281		3.657945		33.663448		100.461101		-7.784347		8.432343		38.566950		-42.160350		-32.117224		-9.599109		51.386847		122.316556		-16.350302		3.098876		81.854806		
0.941414		-1.556685		23.391154		89.540748		0.019520		1.458361		0.841869		7.803491		-6.634972		-12.438898		-16.650848		-32.593668		0.550674		16.979016		0.024150		-0.409105		-15.655137		-15.180571		-31.325547		-8.784235		22.130397		-61.004666		-1.542886		-4.498029		-26.166880		-3.251514		3.214152		-39.559997		-33.675020		3.289170		33.809121		100.172923		-7.303797		8.552067		38.860690		-45.358744		-31.752815		-10.223386		52.131761		121.786718		-16.703242		2.839115		82.202334		
0.945783		-1.593602		23.306420		89.682865		0.020015		1.443016		0.831199		7.352409		-6.655310		-13.118578		-15.927959		-32.722896		0.905518		16.830604		-0.071190		-0.507444		-15.721383		-14.939841		-31.402514		-8.701299		22.078863		-60.032795		-1.665498		-4.618538		-27.397691		-2.978719		3.281033		-42.614320		-33.135704		2.510299		34.181783		100.119104		-6.426971		9.320533		39.406842		-48.615426		-31.212642		-11.102916		52.935137		120.885385		-17.411510		2.452115		82.951640		
0.950152		-1.581044		23.135835		89.714347		0.020596		1.427481		0.820403		7.035023		-6.602338		-13.560061		-15.275919		-32.920215		1.078263		16.723578		-0.092613		-0.654200		-15.888884		-14.674574		-31.609936		-8.707351		22.018573		-58.919262		-1.828668		-4.599321		-28.960507		-2.758847		3.190172		-45.666817		-32.672742		2.304631		34.526472		100.040757		-5.870046		9.486607		39.744174		-51.758325		-30.831078		-11.565736		53.776049		120.450940		-17.670630		2.166537		83.344233		
0.954520		-1.546701		22.991856		89.817976		0.021184		1.411697		0.809836		6.711060		-6.554272		-14.226533		-14.715364		-32.992329		1.500090		16.567617		-0.068855		-0.838438		-15.879234		-14.505924		-31.630114		-8.698126		21.986180		-57.895337		-1.939295		-4.699794		-30.207494		-2.452009		3.271682		-48.639040		-32.140068		1.584198		35.107820		100.209480		-4.804090		10.316915		40.573249		-54.981144		-30.201700		-12.438032		54.672997		119.538607		-18.108611		1.773200		84.132338		
0.958889		-1.503170		22.819857		89.841504		0.021913		1.395870		0.799173		6.448310		-6.455867		-14.657014		-14.211369		-33.190433		1.698693		16.438703		-0.064245		-1.015029		-15.962729		-14.255175		-31.803770		-8.759009		21.933173		-56.814902		-2.098623		-4.627560		-31.706880		-2.208412		3.196113		-51.625163		-31.579764		1.318758		35.628780		100.205329		-4.149565		10.532662		41.084946		-58.041993		-29.790679		-12.899977		55.598631		119.053764		-18.324808		1.441819		84.569505		
0.963258		-1.453029		22.628757		89.837598		0.022583		1.379769		0.788699		6.260455		-6.366197		-15.075218		-13.772653		-33.387617		1.932177		16.299076		-0.001013		-1.193733		-16.007981		-14.054640		-31.885444		-8.877014		21.895729		-55.759125		-2.270924		-4.535255		-33.016372		-1.898397		3.180529		-54.581844		-30.989452		0.891551		36.249890		100.031573		-3.319951		10.852524		41.809601		-61.084535		-29.268951		-13.499752		56.602078		118.451981		-18.524984		1.078208		84.977567		
0.967626		-1.414773		22.447419		89.845111		0.023320		1.363575		0.778304		6.084220		-6.281936		-15.440259		-13.417266		-33.587375		2.148952		16.137894		0.071018		-1.364882		-16.006160		-13.868222		-31.974796		-9.000600		21.860468		-54.742173		-2.446510		-4.473211		-34.286797		-1.650995		3.214124		-57.445759		-30.337782		0.327581		36.908319		99.833556		-2.447116		11.232825		42.660271		-64.041839		-28.750351		-13.990696		57.557894		117.865589		-18.750301		0.670284		85.399476		
0.971995		-1.403399		22.260449		89.812143		0.023910		1.347145		0.768108		5.969335		-6.237249		-15.717146		-13.115160		-33.746921		2.321672		15.999664		0.177769		-1.497057		-16.037120		-13.710583		-31.996031		-9.134849		21.837622		-53.778430		-2.645992		-4.331960		-35.321218		-1.352950		3.273701		-60.291905		-29.588435		-0.481608		37.591663		99.344687		-1.419883		11.570627		43.664460		-66.847398		-28.173514		-14.523051		58.506258		117.328256		-19.088727		0.205928		85.764955		
0.976364		-1.405090		22.123932		89.776887		0.024534		1.330726		0.757902		5.820694		-6.197875		-15.906833		-12.881215		-33.904577		2.425710		15.903127		0.231741		-1.622843		-16.072186		-13.542396		-32.113370		-9.178017		21.810401		-52.875215		-2.858719		-4.231878		-36.470639		-1.177848		3.275775		-62.999064		-28.842677		-1.196532		38.203536		98.807402		-0.631978		11.640719		44.424191		-69.584654		-27.626922		-14.908203		59.449927		116.965913		-19.394820		-0.226504		86.056535		
0.980732		-1.437328		21.979667		89.710702		0.024984		1.314053		0.748015		5.739429		-6.211968		-16.007335		-12.738435		-33.871312		2.586827		15.846028		0.335167		-1.698490		-16.091451		-13.420546		-32.071048		-9.171839		21.835113		-52.051325		-3.074108		-4.112573		-37.262852		-1.019037		3.323132		-65.571565		-27.933925		-2.528352		38.732191		98.097929		0.527808		12.021950		45.659047		-72.096176		-26.981834		-15.349630		60.232199		116.481314		-20.017192		-0.845631		86.506094		
0.985101		-1.477491		21.905428		89.695102		0.025445		1.297447		0.738175		5.588857		-6.229812		-16.077346		-12.648909		-33.919176		2.674349		15.807425		0.377996		-1.774224		-16.087646		-13.294194		-32.134240		-9.102186		21.846122		-51.315608		-3.271195		-4.002685		-38.191030		-0.866854		3.282131		-68.012126		-27.035506		-3.527732		39.180776		97.321768		1.249857		11.930007		46.344766		-74.489315		-26.369507		-15.836335		61.024967		116.162885		-20.445214		-1.278230		86.776392		
0.989470		-1.537755		21.806087		89.642518		0.025823		1.280564		0.728657		5.516221		-6.277732		-16.035467		-12.629770		-33.753058		2.820239		15.777137		0.468483		-1.815557		-16.058814		-13.175337		-31.971297		-8.937908		21.937941		-50.646403		-3.470983		-3.902984		-38.727472		-0.766529		3.256464		-70.169174		-25.973395		-5.130249		39.391392		96.317985		2.323025		12.232182		47.365186		-76.603430		-25.677782		-16.315261		61.590369		115.792796		-21.141992		-1.889073		87.150054		
0.993838		-1.582479		21.768517		89.634856		0.026249		1.263752		0.719266		5.397455		-6.308241		-15.931678		-12.683506		-33.730671		2.883436		15.702864		0.528197		-1.886107		-15.983425		-13.102619		-31.896726		-8.776855		22.015755		-50.065334		-3.633566		-3.849913		-39.432564		-0.732215		3.237088		-72.103582		-24.940510		-6.524120		39.501022		95.396894		3.015720		12.313264		48.017158		-78.553712		-24.971327		-16.846371		62.088348		115.493788		-21.704722		-2.349786		87.417102		
0.998207		-1.613111		21.690057		89.614247		0.026619		1.246673		0.710226		5.377594		-6.318627		-15.687464		-12.820070		-33.564648		2.873386		15.526094		0.668969		-1.966527		-15.922970		-13.066346		-31.605821		-8.525573		22.199815		-49.530458		-3.770509		-3.815987		-39.792578		-0.734071		3.253281		-73.684645		-23.802213		-8.383729		39.325735		94.367409		3.927435		12.882304		48.826846		-80.223133		-24.232325		-17.303251		62.374810		115.210344		-22.466475		-2.961551		87.737329		
1.002576		-1.644524		21.696541		89.640238		0.027085		1.229718		0.701330		5.272140		-6.318961		-15.462174		-13.010162		-33.496888		2.763520		15.371385		0.765331		-2.060175		-15.782518		-13.096125		-31.393609		-8.366995		22.333340		-49.130330		-3.911768		-3.828272		-40.199511		-0.619042		3.287456		-75.014102		-22.732468		-9.952685		39.034925		93.386595		4.421834		13.042310		49.280452		-81.663193		-23.445356		-17.911638		62.543979		114.958053		-22.957358		-3.296532		87.869780		
